<svg xmlns="http://www.w3.org/2000/svg" xmlns:xlink="http://www.w3.org/1999/xlink" width="500" zoomAndPan="magnify" viewBox="0 0 375 374.999991" height="500" preserveAspectRatio="xMidYMid meet" version="1.0"><defs><clipPath id="8e23415e0d"><path d="M 0 55.761719 L 375 55.761719 L 375 319.011719 L 0 319.011719 Z M 0 55.761719 " clip-rule="nonzero"/></clipPath></defs><g clip-path="url(#8e23415e0d)"><path fill="#000000" d="M 13.203125 231.191406 L 13.203125 71.820312 C 13.203125 62.964844 20.390625 55.785156 29.253906 55.785156 L 188.679688 55.785156 C 197.542969 55.785156 204.726562 62.964844 204.726562 71.820312 L 204.726562 231.191406 C 204.726562 234.140625 202.332031 236.535156 199.375 236.535156 L 18.554688 236.535156 C 15.597656 236.535156 13.203125 234.140625 13.203125 231.191406 Z M 141.945312 285.789062 C 141.945312 304.15625 127.039062 319.046875 108.65625 319.046875 C 90.273438 319.046875 75.371094 304.15625 75.371094 285.789062 C 75.371094 267.417969 90.273438 252.53125 108.65625 252.53125 C 127.039062 252.53125 141.945312 267.417969 141.945312 285.789062 Z M 125.300781 285.789062 C 125.300781 276.605469 117.847656 269.160156 108.65625 269.160156 C 99.464844 269.160156 92.011719 276.605469 92.011719 285.789062 C 92.011719 294.972656 99.464844 302.417969 108.65625 302.417969 C 117.847656 302.417969 125.300781 294.972656 125.300781 285.789062 Z M 79.988281 252.527344 L 5.398438 252.527344 C 2.445312 252.527344 0.0507812 254.921875 0.0507812 257.875 L 0.0507812 274.089844 C 0.0507812 277.042969 2.445312 279.4375 5.398438 279.4375 L 65.1875 279.4375 C 66.746094 268.734375 72.152344 259.28125 79.988281 252.527344 Z M 316.101562 285.789062 C 316.101562 304.15625 301.199219 319.046875 282.816406 319.046875 C 264.433594 319.046875 249.53125 304.15625 249.53125 285.789062 C 249.53125 267.417969 264.433594 252.53125 282.816406 252.53125 C 301.199219 252.527344 316.101562 267.417969 316.101562 285.789062 Z M 299.460938 285.789062 C 299.460938 276.605469 292.007812 269.160156 282.816406 269.160156 C 273.625 269.160156 266.171875 276.605469 266.171875 285.789062 C 266.171875 294.972656 273.625 302.417969 282.816406 302.417969 C 292.007812 302.417969 299.460938 294.972656 299.460938 285.789062 Z M 374.949219 257.875 L 374.949219 274.089844 C 374.949219 277.042969 372.554688 279.4375 369.597656 279.4375 L 326.289062 279.4375 C 323.1875 258.207031 304.90625 241.839844 282.816406 241.839844 C 260.726562 241.839844 242.441406 258.207031 239.34375 279.4375 L 152.128906 279.4375 C 150.566406 268.734375 145.164062 259.28125 137.328125 252.527344 L 220.019531 252.527344 L 220.019531 99.640625 C 220.019531 93.738281 224.808594 88.949219 230.71875 88.949219 L 281.222656 88.949219 C 295.445312 88.949219 308.734375 96.007812 316.691406 107.785156 L 349.25 155.964844 C 354.027344 163.035156 356.578125 171.367188 356.578125 179.894531 L 356.578125 252.527344 L 369.597656 252.527344 C 372.550781 252.527344 374.949219 254.921875 374.949219 257.875 Z M 320.679688 157.203125 L 294.644531 120.238281 C 293.640625 118.8125 292.007812 117.96875 290.269531 117.96875 L 249.65625 117.96875 C 246.703125 117.96875 244.308594 120.359375 244.308594 123.3125 L 244.308594 160.277344 C 244.308594 163.230469 246.703125 165.621094 249.65625 165.621094 L 316.304688 165.621094 C 320.640625 165.621094 323.175781 160.742188 320.679688 157.203125 Z M 320.679688 157.203125 " fill-opacity="1" fill-rule="nonzero"/></g></svg>