<svg xmlns="http://www.w3.org/2000/svg" xmlns:xlink="http://www.w3.org/1999/xlink" width="500" zoomAndPan="magnify" viewBox="0 0 375 374.999991" height="500" preserveAspectRatio="xMidYMid meet" version="1.0"><path fill="#000000" d="M 147.316406 77.175781 C 168.640625 77.175781 185.925781 59.898438 185.925781 38.589844 C 185.925781 17.277344 168.640625 0 147.316406 0 C 125.988281 0 108.703125 17.277344 108.703125 38.589844 C 108.703125 59.898438 125.988281 77.175781 147.316406 77.175781 Z M 147.316406 77.175781 " fill-opacity="1" fill-rule="nonzero"/><path fill="#000000" d="M 117.980469 124.121094 C 111.035156 79.703125 175.121094 66.21875 185.441406 111.628906 L 202.898438 198.621094 L 268.039062 198.753906 C 287.058594 198.753906 296.949219 213.960938 296.949219 228.023438 L 296.949219 346.296875 C 296.949219 375.019531 256.027344 374.882812 256.027344 345.785156 L 256.027344 253.738281 L 172.828125 253.738281 C 153.429688 253.738281 141.257812 240.433594 138.214844 225.230469 L 117.976562 124.121094 Z M 117.980469 124.121094 " fill-opacity="1" fill-rule="nonzero"/><path fill="#000000" d="M 225.519531 261.5 C 247.132812 261.5 247.035156 293.449219 225.820312 293.449219 L 166.074219 293.449219 C 137.027344 293.449219 108.058594 271.640625 100.480469 237.929688 L 81.867188 147.511719 C 78.097656 126.984375 107.664062 120.148438 112.027344 141.167969 L 129.679688 227.667969 C 134.625 249.714844 150.980469 261.5 170.757812 261.5 Z M 225.519531 261.5 " fill-opacity="1" fill-rule="nonzero"/></svg>